:SAMPLES-PER-SECOND 30
:FULLY-SPECIFIED
:DEGREES
35
root  -22.6346 39.4075 -10.473 50.2321 -82.4028 -50.5582
RightUpLeg  -1.50094 -24.1581 -2.85131
RightLeg  22.2989 1.51779 1.98736
RightFoot  -16.1605 0.0239928 3.12687
RightToes  0.00048216 0.542163 -0.142577
Spine  19.0477 -0.498333 14.3856
Spine1  9.0713 2.31683 -2.42446
HEad  9.28351 12.2108 -12.0055
LeftShoulder1  8.64893 -12.9132 -45.9425
LeftArm  -4.21504 17.2791 -29.405
LeftForeArm  27.808 -24.0258 -3.70035
LeftHand  -0.25398 0.0180481 5.50724
RightShoulder  4.88476 8.99467 33.1413
RightArm  -13.7443 14.7701 24.5356
RightForeArm  6.42725 10.7673 6.23861
RightHand  -0.912577 2.54304 -13.5621
LeftUpLeg  -31.4804 24.61 -5.52271
LeftLeg  38.4422 4.38471 4.11503
LeftFoot  -7.03294 0.24205 -5.33329
LeftToes  1.06248e-005 4.65856e-005 -8.18499e-006
36
root  -24.1488 39.2893 -10.8528 47.2031 -81.3946 -47.6018
RightUpLeg  2.30489 -22.3688 -2.70161
RightLeg  20.5819 -1.11503 2.2176
RightFoot  -17.7865 0.114854 4.16776
RightToes  0.00048216 0.542163 -0.142577
Spine  18.8341 0.0183615 14.7516
Spine1  9.54624 3.16998 -3.48857
HEad  9.20159 11.4766 -11.8475
LeftShoulder1  8.62491 -12.9181 -45.7967
LeftArm  -4.46575 18.435 -28.9852
LeftForeArm  26.9405 -22.0114 -3.56275
LeftHand  -0.25398 0.0180481 5.50724
RightShoulder  4.82148 8.90834 32.9036
RightArm  -12.7897 17.9174 23.1649
RightForeArm  4.35612 12.2261 6.41624
RightHand  -0.917681 2.49126 -13.7187
LeftUpLeg  -32.9582 30.3747 -10.6726
LeftLeg  26.5595 1.62323 1.62545
LeftFoot  -5.97125 0.300732 -5.56539
LeftToes  1.06248e-005 4.65856e-005 -8.18499e-006
37
root  -25.7407 39.0654 -11.1851 46.0121 -80.1724 -46.5938
RightUpLeg  6.10089 -20.6498 -2.01823
RightLeg  19.1439 -3.66116 2.47979
RightFoot  -18.9572 0.206968 5.07023
RightToes  0.00048216 0.542163 -0.142577
Spine  18.3737 0.263536 15.0695
Spine1  10.2025 3.7359 -4.48286
HEad  8.89853 11.4246 -11.6386
LeftShoulder1  8.5314 -12.859 -45.4517
LeftArm  -6.07323 19.8465 -28.1524
LeftForeArm  26.3505 -20.0328 -3.73152
LeftHand  -0.25398 0.0180481 5.50724
RightShoulder  4.82667 9.00763 32.6379
RightArm  -11.7508 20.9744 22.3913
RightForeArm  2.74136 13.481 6.45865
RightHand  -0.990965 2.75202 -14.3316
LeftUpLeg  -32.3919 32.8131 -12.7929
LeftLeg  14.9338 4.08766 -0.651564
LeftFoot  -3.32566 0.548678 -7.47925
LeftToes  1.06248e-005 4.65856e-005 -8.18499e-006
38
root  -27.4582 38.7468 -11.4953 44.1456 -78.6748 -45.189
RightUpLeg  10.1127 -19.9432 -1.18147
RightLeg  18.366 -5.75809 2.46272
RightFoot  -20.4588 0.24235 4.77339
RightToes  0.00048216 0.542163 -0.142577
Spine  17.5118 0.34005 14.8124
Spine1  11.3106 3.90876 -4.95447
HEad  8.76044 11.9251 -11.1575
LeftShoulder1  8.39064 -12.777 -44.9056
LeftArm  -7.93848 21.1427 -26.8188
LeftForeArm  25.0658 -17.9654 -4.00214
LeftHand  -0.25398 0.0180481 5.50724
RightShoulder  4.84648 9.22186 32.1424
RightArm  -10.7306 23.6203 22.5392
RightForeArm  1.60945 14.5816 6.38481
RightHand  -1.10167 3.2649 -15.0026
LeftUpLeg  -25.4205 19.8449 -3.14723
LeftLeg  4.10913 26.662 -7.30192
LeftFoot  -0.854059 0.6633 -7.27685
LeftToes  1.06248e-005 4.65856e-005 -8.18499e-006
39
root  -29.2685 38.3544 -11.8117 40.4688 -77.4002 -41.8385
RightUpLeg  13.925 -22.8751 -1.79083
RightLeg  18.9059 -3.27709 2.0815
RightFoot  -22.2621 0.498122 6.68775
RightToes  0.00048216 0.542163 -0.142577
Spine  16.7649 0.605825 12.9821
Spine1  12.2778 3.95916 -4.80575
HEad  8.9086 12.5619 -10.0965
LeftShoulder1  8.23374 -12.6676 -44.3394
LeftArm  -9.29236 21.8504 -24.8599
LeftForeArm  23.5967 -15.5661 -4.31683
LeftHand  -0.25398 0.0180481 5.50724
RightShoulder  4.84375 9.30916 31.8604
RightArm  -9.17515 25.5047 23.2752
RightForeArm  0.755322 15.9282 6.17473
RightHand  -1.14255 3.45792 -15.2208
LeftUpLeg  -23.0794 11.5857 0.773969
LeftLeg  -1.48292 42.7111 -12.4377
LeftFoot  -0.90114 -0.0393051 0.697579
LeftToes  1.06248e-005 4.65856e-005 -8.18499e-006
